HIERARCHY
ROOT Hips
{
	OFFSET 0.00000 0.00000 0.00000
	CHANNELS 6 Xposition Yposition Zposition Zrotation Yrotation Xrotation 
	JOINT LHipJoint
	{
		OFFSET 0 0 0
		CHANNELS 3 Zrotation Yrotation Xrotation
		JOINT LeftUpLeg
		{
			OFFSET 1.44361 -1.63093 0.70831
			CHANNELS 3 Zrotation Yrotation Xrotation
			JOINT LeftLeg
			{
				OFFSET 2.20103 -6.04728 0.00000
				CHANNELS 3 Zrotation Yrotation Xrotation
				JOINT LeftFoot
				{
					OFFSET 2.54154 -6.98283 0.00000
					CHANNELS 3 Zrotation Yrotation Xrotation
					JOINT LeftToeBase
					{
						OFFSET 0.05971 -0.16406 1.77582
						CHANNELS 3 Zrotation Yrotation Xrotation
						End Site
						{
							OFFSET 0.00000 -0.00000 0.90832
						}
					}
				}
			}
		}
	}
	JOINT RHipJoint
	{
		OFFSET 0 0 0
		CHANNELS 3 Zrotation Yrotation Xrotation
		JOINT RightUpLeg
		{
			OFFSET -1.65838 -1.63093 0.70830
			CHANNELS 3 Zrotation Yrotation Xrotation
			JOINT RightLeg
			{
				OFFSET -2.26926 -6.23475 0.00000
				CHANNELS 3 Zrotation Yrotation Xrotation
				JOINT RightFoot
				{
					OFFSET -2.34808 -6.45129 0.00000
					CHANNELS 3 Zrotation Yrotation Xrotation
					JOINT RightToeBase
					{
						OFFSET -0.18633 -0.51195 1.68539
						CHANNELS 3 Zrotation Yrotation Xrotation
						End Site
						{
							OFFSET -0.00000 -0.00000 0.88927
						}
					}
				}
			}
		}
	}
	JOINT LowerBack
	{
		OFFSET 0 0 0
		CHANNELS 3 Zrotation Yrotation Xrotation
		JOINT Spine
		{
			OFFSET -0.10393 2.01691 0.06920
			CHANNELS 3 Zrotation Yrotation Xrotation
			JOINT Spine1
			{
				OFFSET 0.04092 2.01302 -0.05283
				CHANNELS 3 Zrotation Yrotation Xrotation
				JOINT Neck
				{
					OFFSET 0 0 0
					CHANNELS 3 Zrotation Yrotation Xrotation
					JOINT Neck1
					{
						OFFSET -0.02870 1.58978 -0.03113
						CHANNELS 3 Zrotation Yrotation Xrotation
						JOINT Head
						{
							OFFSET 0.11532 1.54326 -0.29195
							CHANNELS 3 Zrotation Yrotation Xrotation
							End Site
							{
								OFFSET 0.04056 1.59999 -0.09535
							}
						}
					}
				}
				JOINT LeftShoulder
				{
					OFFSET 0 0 0
					CHANNELS 3 Zrotation Yrotation Xrotation
					JOINT LeftArm
					{
						OFFSET 3.30641 1.15764 0.01104
						CHANNELS 3 Zrotation Yrotation Xrotation
						JOINT LeftForeArm
						{
							OFFSET 4.63208 -0.00000 0.00000
							CHANNELS 3 Zrotation Yrotation Xrotation
							JOINT LeftHand
							{
								OFFSET 3.41924 -0.00000 -0.00000
								CHANNELS 3 Zrotation Yrotation Xrotation
								JOINT LeftFingerBase
								{
									OFFSET 0 0 0
									CHANNELS 3 Zrotation Yrotation Xrotation
									JOINT LeftHandIndex1
									{
										OFFSET 0.62537 -0.00000 -0.00000
										CHANNELS 3 Zrotation Yrotation Xrotation
										End Site
										{
											OFFSET 0.50419 -0.00000 -0.00000
										}
									}
								}
								JOINT LThumb
								{
									OFFSET 0 0 0
									CHANNELS 3 Zrotation Yrotation Xrotation
									End Site
									{
										OFFSET 0.51189 -0.00000 0.51189
									}
								}
							}
						}
					}
				}
				JOINT RightShoulder
				{
					OFFSET 0 0 0
					CHANNELS 3 Zrotation Yrotation Xrotation
					JOINT RightArm
					{
						OFFSET -3.78081 1.02180 -0.16609
						CHANNELS 3 Zrotation Yrotation Xrotation
						JOINT RightForeArm
						{
							OFFSET -4.40640 -0.00000 -0.00000
							CHANNELS 3 Zrotation Yrotation Xrotation
							JOINT RightHand
							{
								OFFSET -3.44675 -0.00000 0.00000
								CHANNELS 3 Zrotation Yrotation Xrotation
								JOINT RightFingerBase
								{
									OFFSET 0 0 0
									CHANNELS 3 Zrotation Yrotation Xrotation
									JOINT RightHandIndex1
									{
										OFFSET -0.51367 -0.00000 -0.00000
										CHANNELS 3 Zrotation Yrotation Xrotation
										End Site
										{
											OFFSET -0.41414 -0.00000 -0.00000
										}
									}
								}
								JOINT RThumb
								{
									OFFSET 0 0 0
									CHANNELS 3 Zrotation Yrotation Xrotation
									End Site
									{
										OFFSET -0.42046 -0.00000 0.42046
									}
								}
							}
						}
					}
				}
			}
		}
	}
}
MOTION
Frames: 15
Frame Time: 0.133333
0.00 0.00 0.00 179.0520 0.7015 -170.5210 0.0000 0.0000 0.0000 -19.6132 -12.5067 -5.8069 0.5584 4.7867 13.3011 0.4627 -1.5539 -12.4046 8.9506 -16.7759 -55.9193 0.0000 0.0000 0.0000 19.8994 4.0219 -3.8660 -0.1324 -2.3456 6.4618 -0.4686 1.3704 -12.5276 -1.4618 7.6414 -21.6301 -6.1076 1.9684 -8.6286 0.8732 3.2543 1.8981 4.8059 1.3437 6.4619 -4.4185 0.0692 -5.5788 8.9460 -6.7547 33.7216 3.0803 -4.0476 12.5031 0.0000 -0.0000 0.0000 -90.9174 -7.8546 14.6088 8.4332 -14.2525 -1.0562 -0.0000 -0.0000 21.2833 34.0800 -18.1347 -11.8914 -7.1250 0.0000 -0.0000 3.8705 8.4444 -3.2678 0.0000 -0.0000 0.0000 94.5308 -0.6202 2.1580 -12.1115 19.9717 -2.1402 0.0000 0.0000 22.4724 -25.3103 -43.1838 17.9335 7.1250 -0.0000 -0.0000 22.7824 -75.0673 -16.3326
0.00 0.00 0.00 178.2680 3.3409 -170.7240 0.0000 0.0000 0.0000 -17.9552 -16.5837 -11.9997 2.4083 9.6692 27.9119 1.1530 -2.0305 -19.7248 9.8004 -17.2961 -58.8192 0.0000 0.0000 0.0000 21.6023 3.2731 -6.8364 -0.3765 -3.9410 10.9108 -0.4710 6.2054 -12.3211 -1.1945 6.9349 -19.5226 -5.2514 1.5696 -6.9256 0.8623 2.5144 1.2925 4.1262 1.0778 4.9743 -2.9350 0.8001 -10.0329 4.2667 -1.0974 25.9955 1.7642 -0.9525 9.9092 -0.0000 -0.0000 0.0000 -90.3392 -3.8407 24.1028 7.6759 -13.0262 -0.8776 -0.0000 -0.0000 31.5815 28.9609 -20.7896 -11.1130 -7.1250 0.0000 -0.0000 0.2413 6.5230 -0.2123 -0.0000 -0.0000 0.0000 93.7883 -0.9688 -23.9189 -7.5168 12.7667 -0.8421 0.0000 0.0000 37.6786 -31.7384 -37.7694 20.7490 7.1250 -0.0000 -0.0000 4.4751 -72.2722 -2.9016
0.00 0.00 0.00 177.7880 4.5665 -171.2770 0.0000 0.0000 0.0000 -16.7166 -19.0386 -22.4338 6.2676 14.6827 46.0465 0.7579 0.7398 -16.7323 10.0351 -17.4295 -59.6057 0.0000 0.0000 0.0000 21.7233 2.9953 -5.9192 -0.3553 -3.8294 10.5973 -0.4478 7.1624 -12.1829 -1.1021 6.6704 -18.7425 -5.1340 1.9591 -5.8097 0.9601 2.9771 1.9107 4.1735 1.2997 4.9404 -2.8534 0.9538 -9.7460 4.2740 -1.2721 27.4709 1.7309 -1.1296 10.3974 0.0000 0.0000 0.0000 -90.4427 -2.9116 28.3579 10.0271 -16.7820 -1.4828 -0.0000 -0.0000 23.8256 28.1409 -20.8208 -10.7644 -7.1250 0.0000 -0.0000 -0.2801 6.6515 0.2458 0.0000 0.0000 0.0000 92.8019 -0.5177 -24.7045 -7.3733 12.5320 -0.8107 0.0000 0.0000 39.1691 -25.7278 -37.0436 16.1873 7.1250 -0.0000 -0.0000 12.3849 -69.5732 -7.3230
0.00 0.00 0.00 177.7270 7.0549 -171.0330 0.0000 0.0000 0.0000 -5.8352 -22.2575 -55.2502 4.4192 12.6983 38.2493 0.5573 3.3464 -15.7179 10.2836 -17.5663 -60.4322 0.0000 0.0000 0.0000 21.7248 2.0195 4.2723 -0.4822 -4.4528 12.3543 -0.7010 8.3911 -15.1670 -2.2229 9.3157 -26.7879 -3.9583 4.8034 2.2619 0.1322 6.6473 4.5155 2.3370 3.2949 2.9414 -4.4693 0.3197 -9.2724 6.2464 -3.2382 30.3893 2.5107 -2.1336 11.5516 -0.0000 0.0000 0.0000 -90.2420 8.0437 -4.6189 4.9238 -8.4558 -0.3642 -0.0000 -0.0000 46.6670 25.7905 -16.1806 -7.6690 -7.1250 0.0000 -0.0000 -1.3035 12.1212 1.0010 -0.0000 0.0000 0.0000 92.6590 13.2007 19.1398 -14.1223 22.9093 -2.8755 0.0000 0.0000 6.6050 -18.4036 -34.5924 10.6971 7.1250 -0.0000 -0.0000 18.8361 -65.0539 -9.2866
0.00 0.00 0.00 177.5260 6.6459 -166.4090 0.0000 0.0000 0.0000 -8.3568 -22.6289 -56.1381 5.2441 13.6535 41.8668 0.5476 1.4746 -14.5894 9.6987 -17.2369 -58.4764 0.0000 0.0000 0.0000 19.7013 2.4849 3.2493 -0.5030 -4.5467 12.6201 0.0385 4.1240 -0.8557 -4.7296 13.0726 -39.6410 -5.8840 4.8994 3.2992 -0.9729 6.8436 4.9269 2.1768 3.3927 2.7138 -5.8441 -1.0035 -6.5890 7.2894 -4.4372 25.9695 2.9759 -2.5822 9.5015 0.0000 0.0000 0.0000 -89.7121 5.0479 4.6117 6.4812 -11.0623 -0.6283 -0.0000 -0.0000 37.0427 26.4271 -21.1756 -10.1778 -7.1250 0.0000 -0.0000 -1.4060 6.5928 1.2356 0.0000 0.0000 0.0000 92.8644 12.3002 19.3867 -14.7446 23.7891 -3.1222 0.0000 0.0000 4.6465 -18.2698 -35.2318 10.7828 7.1250 -0.0000 -0.0000 19.6445 -65.6107 -9.9514
0.00 0.00 0.00 178.4150 7.6956 -162.3440 0.0000 0.0000 0.0000 -12.5146 -21.6136 -44.1965 3.0265 10.7379 31.4009 0.7543 0.5931 -16.6351 8.7149 -16.6207 -55.0987 0.0000 0.0000 0.0000 17.7061 6.3068 -5.6794 -2.0805 -9.0318 25.8947 -1.1514 -7.2525 19.1673 -4.3955 12.6689 -38.1414 -7.5010 4.8762 2.6395 -1.7324 6.8013 4.3035 2.3037 3.3428 2.3593 -6.3190 -0.9026 -5.3961 8.5100 -3.9874 22.9964 3.5065 -2.2252 8.2417 -0.0000 -0.0000 0.0000 -89.4889 2.4732 16.4506 8.9932 -15.1497 -1.1984 -0.0000 -0.0000 23.3335 27.0835 -21.5963 -10.6592 -7.1250 0.0000 -0.0000 -1.0439 6.0128 0.9290 -0.0000 -0.0000 0.0000 92.6142 7.5556 12.4185 -11.4136 18.9195 -1.9079 0.0000 0.0000 12.2729 -18.0871 -35.3453 10.6993 7.1250 -0.0000 -0.0000 19.9756 -65.6637 -10.1494
0.00 0.00 0.00 178.3420 8.3522 -162.6720 0.0000 0.0000 0.0000 -15.6683 -19.5973 -37.7985 2.3284 9.5190 27.4328 0.9465 -1.9085 -17.8426 8.2573 -16.3053 -53.4844 0.0000 0.0000 0.0000 16.7885 9.0876 -16.0531 -6.2460 -14.6625 45.9610 -0.3255 -9.7054 11.4131 -3.8592 11.9707 -35.6284 -8.5653 4.5817 3.1177 -1.6626 6.3711 4.3666 2.9236 3.1161 2.0916 -5.4310 -0.7116 -5.8002 8.0380 -3.5681 22.4310 3.2218 -1.9579 8.0737 0.0000 0.0000 0.0000 -89.2370 1.9148 22.0726 10.5067 -17.5282 -1.6242 -0.0000 -0.0000 20.7346 26.3367 -21.1040 -10.1063 -7.1250 0.0000 -0.0000 -1.4546 6.6870 1.2757 0.0000 0.0000 0.0000 92.1849 5.6833 8.4086 -10.5028 17.5222 -1.6231 0.0000 0.0000 16.4557 -17.2343 -34.7930 10.0379 7.1250 -0.0000 -0.0000 20.3768 -64.9152 -10.0093
0.00 0.00 0.00 177.2840 6.7265 -165.1380 0.0000 0.0000 0.0000 -21.8584 -15.8460 -25.1824 1.4484 7.6076 21.5284 1.1580 -6.5596 -19.2199 8.6499 -16.5771 -54.8713 0.0000 0.0000 0.0000 14.3802 12.7671 -35.1446 -12.2399 -18.4902 66.7471 -0.0202 -5.1165 -7.9232 -2.5850 9.9909 -28.9472 -10.3159 2.2041 4.1205 -1.3923 3.1001 4.4359 4.2371 1.4617 1.8971 -2.7898 0.1483 -8.9000 6.1755 -2.8174 25.7273 2.2118 -1.5763 9.6936 0.0000 0.0000 0.0000 -87.9529 -0.7820 29.6507 12.6485 -20.7701 -2.3272 -0.0000 -0.0000 18.9868 29.5657 -19.8239 -10.8898 -7.1250 0.0000 -0.0000 0.7522 7.4692 -0.6481 0.0000 0.0000 0.0000 92.3103 0.5263 0.1598 -10.0943 16.8869 -1.5022 0.0000 0.0000 18.7611 -17.5541 -35.0975 10.3085 7.1250 -0.0000 -0.0000 20.3270 -65.2849 -10.1574
0.00 0.00 0.00 176.6540 4.5913 -167.3250 0.0000 0.0000 0.0000 -26.0134 -11.7792 -12.0817 0.7480 5.5244 15.4104 1.3292 -10.8255 -20.8556 8.4636 -16.4499 -54.2160 0.0000 0.0000 0.0000 10.1222 17.1898 -49.6707 -7.5006 -15.7394 50.7433 -0.5903 -2.8725 -15.8407 -2.8669 10.4764 -30.5335 -11.1451 0.5789 4.2667 -1.5175 0.8220 3.7756 4.6378 0.3421 1.4619 -1.9950 -3.0460 -6.2915 6.6695 -3.4559 26.6939 2.4519 -0.3218 9.5898 -0.0000 -0.0000 0.0000 -85.1634 -4.7396 35.8986 14.1436 -22.9396 -2.8838 -0.0000 -0.0000 16.7147 29.9009 -21.2812 -11.7890 -7.1250 0.0000 -0.0000 0.7642 5.7865 -0.6833 -0.0000 -0.0000 0.0000 94.2877 -7.0479 -14.6745 -9.3380 15.6975 -1.2901 0.0000 0.0000 24.2981 -17.2079 -35.0365 10.0819 7.1250 -0.0000 -0.0000 20.6585 -65.1320 -10.2567
0.00 0.00 0.00 176.5370 2.2113 -168.0830 0.0000 0.0000 0.0000 -27.0588 -9.8987 -5.7167 0.5623 4.8031 13.3478 1.2731 -13.6870 -20.9837 8.2062 -16.2689 -53.3021 0.0000 0.0000 0.0000 8.4973 17.1326 -51.3184 -2.9870 -10.6740 31.1882 -0.5739 -1.8046 -15.0765 -3.0206 10.7283 -31.3688 -12.0682 -1.6178 4.1740 -0.2079 -2.0019 4.8898 6.5729 -1.2423 3.2730 -3.8272 -1.9246 -9.5378 6.1933 -1.5645 28.4261 2.8532 0.3183 10.7741 0.0000 -0.0000 0.0000 -86.7595 -9.2807 33.0078 15.3588 -24.6436 -3.3741 -0.0000 -0.0000 16.8961 30.0357 -20.8755 -11.6416 -7.1250 0.0000 -0.0000 0.9060 6.2074 -0.8028 0.0000 -0.0000 0.0000 92.2245 -7.7977 -20.8754 -8.1956 13.8694 -0.9985 0.0000 0.0000 30.4269 -16.9238 -34.9840 9.8960 7.1250 -0.0000 -0.0000 20.9266 -65.0046 -10.3336
0.00 0.00 0.00 176.7270 -5.3255 -166.7660 0.0000 0.0000 0.0000 -25.5526 -8.5573 5.8151 1.4059 7.5001 21.2058 -0.0051 -8.2051 -5.6457 8.3822 -16.3933 -53.9280 0.0000 0.0000 0.0000 7.5567 16.2873 -48.3322 -2.0296 -8.9275 25.5687 0.1135 -6.4570 -4.9982 -3.6008 11.6093 -34.3635 -7.1938 -1.8841 3.2576 2.7531 -2.9911 4.9099 6.9080 -1.9632 3.8053 -4.0582 -2.1237 -6.5958 5.0929 -1.5597 25.9899 2.4172 0.1143 9.3088 0.0000 -0.0000 0.0000 -91.8972 -9.6458 32.9006 16.2081 -25.8020 -3.7361 -0.0000 -0.0000 18.0928 34.0880 -21.8660 -14.1464 -7.1250 0.0000 -0.0000 3.2689 4.1626 -3.0280 0.0000 -0.0000 0.0000 93.7994 -10.9776 -49.7628 -6.2129 10.6167 -0.5778 0.0000 0.0000 51.8050 -12.4545 -35.6030 7.3268 7.1250 -0.0000 -0.0000 26.5442 -64.3310 -12.8596
0.00 0.00 0.00 177.1280 -4.9680 -165.0220 0.0000 0.0000 0.0000 -23.7435 -8.9647 0.5273 3.9153 12.0469 35.8980 0.3856 7.9399 11.5893 9.0954 -16.8687 -56.4194 0.0000 0.0000 0.0000 10.9420 14.5877 -44.2814 -1.9959 -8.8575 25.3506 -0.0857 -2.6168 -7.1340 -2.6987 10.1905 -29.5960 -5.2279 -2.1464 2.4945 3.5710 -3.2545 4.0725 6.6343 -1.9769 3.3254 -4.9415 -1.5611 -5.1333 4.5816 -0.7943 23.6741 2.3956 0.2357 8.2007 -0.0000 0.0000 0.0000 -91.8243 -5.9315 32.1741 13.3882 -21.8534 -2.5960 -0.0000 -0.0000 17.6331 30.2748 -22.1206 -12.3976 -7.1250 0.0000 -0.0000 0.8753 4.7773 -0.7994 -0.0000 0.0000 0.0000 91.1881 -8.8595 -37.1335 -6.7765 11.5509 -0.6862 0.0000 0.0000 43.2821 -14.2428 -34.4193 8.1650 7.1250 -0.0000 -0.0000 23.3310 -63.7619 -10.9060
0.00 0.00 0.00 178.2510 -2.9070 -166.2330 0.0000 0.0000 0.0000 -21.0973 -7.0262 -11.2355 9.2593 16.9717 56.9827 -0.1228 7.8799 2.3047 9.7708 -17.2790 -58.7196 0.0000 0.0000 0.0000 16.6643 12.9752 -34.3268 -1.5283 -7.8053 22.1244 -0.2181 1.1393 -8.4935 -2.6229 10.0580 -29.1647 -4.3564 -0.9471 3.3036 3.7066 -1.6724 3.8369 6.3215 -1.1264 2.3480 -4.7968 -1.6752 -5.1953 4.6883 -0.9882 23.5871 2.3899 0.1734 8.1915 -0.0000 0.0000 0.0000 -91.0155 -2.3075 29.8032 11.0661 -18.3896 -1.7967 -0.0000 -0.0000 25.5636 29.4820 -22.9897 -12.4517 -7.1250 0.0000 -0.0000 0.2569 3.9967 -0.2384 -0.0000 0.0000 0.0000 89.1946 -2.8442 -20.4781 -8.2909 14.0233 -1.0215 0.0000 0.0000 31.2889 -18.4609 -34.1514 10.6147 7.1250 -0.0000 -0.0000 18.3389 -64.6569 -8.8652
0.00 0.00 0.00 176.8210 2.2217 -170.3310 0.0000 0.0000 0.0000 -27.3592 -9.8142 -10.0469 0.4917 4.4959 12.4760 1.1905 -5.9521 -19.5109 10.3436 -17.5986 -60.6306 0.0000 0.0000 0.0000 9.2498 18.9178 -40.4755 -3.3382 -11.2234 33.0369 -0.6320 -0.8599 -15.3533 -3.0676 10.8037 -31.6206 -10.2178 -1.1453 1.5665 1.2516 -1.2556 4.4982 7.0409 -0.9358 4.1260 -4.4230 -1.4086 -7.3713 6.1050 -0.3344 28.9722 3.0857 0.9283 10.4785 -0.0000 -0.0000 0.0000 -88.3942 -14.9796 35.8145 22.8192 -33.8905 -7.0372 -0.0000 -0.0000 13.2388 32.0070 -21.8072 -13.0720 -7.1250 0.0000 -0.0000 1.9960 4.7328 -1.8256 -0.0000 -0.0000 0.0000 90.9511 -11.1374 -58.3266 -5.8225 9.9657 -0.5081 0.0000 0.0000 62.0045 -19.2470 -35.3366 11.4171 7.1250 -0.0000 -0.0000 18.6163 -65.9867 -9.5746
0.00 0.00 0.00 177.6040 3.7443 -170.2890 0.0000 0.0000 0.0000 -20.5356 -13.7415 -17.7980 0.3285 3.6840 10.1892 0.4250 -0.7631 -12.0725 9.4328 -17.0783 -57.5750 0.0000 0.0000 0.0000 17.6006 7.3921 -3.9914 -1.7165 -8.2489 23.4725 -0.3777 5.1862 -10.9874 -3.2907 11.1513 -32.7920 -8.4342 1.8028 -4.2669 0.9406 3.0467 3.7495 6.0026 1.1590 5.8670 -5.5206 2.3059 -7.4132 7.5687 -2.9973 36.0232 3.2539 -2.6578 13.5122 -0.0000 -0.0000 0.0000 -90.4040 -0.8665 25.2397 14.0232 -22.7678 -2.8371 -0.0000 -0.0000 18.7170 27.2862 -21.5774 -10.7415 -7.1250 0.0000 -0.0000 -0.9143 5.9939 0.8139 -0.0000 -0.0000 0.0000 91.6119 7.5584 10.3667 -11.5960 19.1961 -1.9674 0.0000 0.0000 15.8338 -18.6690 -36.0527 11.2466 7.1250 -0.0000 -0.0000 20.0706 -66.4830 -10.5760
